<svg viewBox="0 0 715.332 73.048" xmlns="http://www.w3.org/2000/svg"><path d="M 387.109 0.977 L 387.109 72.071 L 374.805 72.071 L 374.805 40.479 L 343.018 40.479 L 343.018 72.071 L 330.664 72.071 L 330.664 0.977 L 343.018 0.977 L 343.018 30.567 L 374.805 30.567 L 374.805 0.977 L 387.109 0.977 Z M 53.076 21.729 L 40.771 21.729 A 14.268 14.268 0 0 0 40.321 18.04 A 10.139 10.139 0 0 0 37.28 13.013 A 11.348 11.348 0 0 0 32.96 10.627 Q 31.263 10.102 29.222 9.938 A 24.081 24.081 0 0 0 27.295 9.864 Q 23.094 9.864 20.198 11.109 A 10.558 10.558 0 0 0 17.896 12.452 A 8.394 8.394 0 0 0 14.597 18.619 A 11.93 11.93 0 0 0 14.551 19.678 Q 14.551 23.584 18.164 26.197 A 19.502 19.502 0 0 0 20.567 27.655 Q 23.281 29.069 27.414 30.44 A 89.005 89.005 0 0 0 30.078 31.275 Q 36.052 33.05 40.332 35.178 A 36.043 36.043 0 0 1 43.408 36.89 A 26.643 26.643 0 0 1 47.051 39.602 Q 49.061 41.401 50.371 43.442 A 16.094 16.094 0 0 1 50.781 44.117 A 17.482 17.482 0 0 1 52.89 50.341 A 22.753 22.753 0 0 1 53.125 53.663 Q 53.125 62.549 46.313 67.798 A 23.521 23.521 0 0 1 38.287 71.735 Q 34.966 72.678 31.018 72.944 A 47.545 47.545 0 0 1 27.832 73.047 A 36.422 36.422 0 0 1 18.243 71.817 A 32.391 32.391 0 0 1 13.647 70.191 A 26.829 26.829 0 0 1 7.898 66.791 A 21.709 21.709 0 0 1 3.589 62.305 Q 0 57.276 0 50.586 L 12.354 50.586 Q 12.354 56.641 16.357 59.961 A 13.09 13.09 0 0 0 20.785 62.317 Q 22.672 62.92 24.953 63.146 A 29.205 29.205 0 0 0 27.832 63.282 A 25.437 25.437 0 0 0 31.377 63.052 Q 33.188 62.796 34.652 62.257 A 10.122 10.122 0 0 0 37.524 60.669 A 8.324 8.324 0 0 0 40.738 54.616 A 10.734 10.734 0 0 0 40.771 53.76 Q 40.771 49.073 37.476 46.534 A 16.261 16.261 0 0 0 35.24 45.122 Q 31.796 43.277 25.586 41.407 A 84.705 84.705 0 0 1 20.093 39.558 Q 17.443 38.557 15.245 37.481 A 36.996 36.996 0 0 1 11.914 35.645 A 24.893 24.893 0 0 1 6.79 31.468 A 16.78 16.78 0 0 1 2.197 19.727 A 17.064 17.064 0 0 1 7.755 6.821 A 22.331 22.331 0 0 1 9.204 5.567 Q 16.036 0.139 26.838 0.004 A 44.3 44.3 0 0 1 27.393 0 A 34.414 34.414 0 0 1 34.721 0.75 A 27.592 27.592 0 0 1 40.625 2.735 A 22.396 22.396 0 0 1 47.437 7.591 A 21.131 21.131 0 0 1 49.756 10.523 Q 53.076 15.577 53.076 21.729 Z M 233.008 30.567 L 233.008 40.333 L 203.809 40.333 L 203.809 62.208 L 237.939 62.208 L 237.939 72.071 L 191.455 72.071 L 191.455 0.977 L 237.598 0.977 L 237.598 10.938 L 203.809 10.938 L 203.809 30.567 L 233.008 30.567 Z M 443.262 30.567 L 443.262 40.333 L 414.063 40.333 L 414.063 62.208 L 448.193 62.208 L 448.193 72.071 L 401.709 72.071 L 401.709 0.977 L 447.852 0.977 L 447.852 10.938 L 414.063 10.938 L 414.063 30.567 L 443.262 30.567 Z M 710.4 30.567 L 710.4 40.333 L 681.201 40.333 L 681.201 62.208 L 715.332 62.208 L 715.332 72.071 L 668.848 72.071 L 668.848 0.977 L 714.99 0.977 L 714.99 10.938 L 681.201 10.938 L 681.201 30.567 L 710.4 30.567 Z M 133.936 0.977 L 151.807 56.592 L 169.873 0.977 L 183.447 0.977 L 157.861 72.071 L 145.898 72.071 L 120.41 0.977 L 133.936 0.977 Z M 321.338 0.977 L 321.338 10.938 L 299.17 10.938 L 299.17 72.071 L 286.914 72.071 L 286.914 10.938 L 264.941 10.938 L 264.941 0.977 L 321.338 0.977 Z M 659.521 0.977 L 659.521 10.938 L 637.354 10.938 L 637.354 72.071 L 625.098 72.071 L 625.098 10.938 L 603.125 10.938 L 603.125 0.977 L 659.521 0.977 Z M 109.57 72.071 L 103.76 55.518 L 76.221 55.518 L 70.459 72.071 L 57.617 72.071 L 84.473 0.977 L 95.557 0.977 L 122.461 72.071 L 109.57 72.071 Z M 593.066 72.071 L 587.256 55.518 L 559.717 55.518 L 553.955 72.071 L 541.113 72.071 L 567.969 0.977 L 579.053 0.977 L 605.957 72.071 L 593.066 72.071 Z M 503.613 72.071 L 483.154 72.071 L 483.154 0.977 L 504.15 0.977 A 36.122 36.122 0 0 1 513.564 2.162 A 30.453 30.453 0 0 1 520.874 5.176 A 28.632 28.632 0 0 1 532.178 17.09 A 35.521 35.521 0 0 1 535.829 29.05 A 45.041 45.041 0 0 1 536.182 34.766 L 536.182 38.331 A 42.994 42.994 0 0 1 535.206 47.689 A 33.779 33.779 0 0 1 532.153 56.104 A 28.288 28.288 0 0 1 520.679 67.92 Q 513.232 72.071 503.613 72.071 Z M 504.15 10.938 L 495.508 10.938 L 495.508 62.208 L 503.564 62.208 A 24.789 24.789 0 0 0 509.679 61.497 A 16.673 16.673 0 0 0 518.481 56.128 Q 522.71 51.185 523.565 42.737 A 44.193 44.193 0 0 0 523.779 38.672 L 523.779 34.717 A 42.657 42.657 0 0 0 523.288 28.019 Q 522.208 21.238 518.75 17.042 A 16.261 16.261 0 0 0 509.174 11.421 A 24.776 24.776 0 0 0 504.15 10.938 Z M 89.99 16.065 L 79.688 45.557 L 100.293 45.557 L 89.99 16.065 Z M 573.486 16.065 L 563.184 45.557 L 583.789 45.557 L 573.486 16.065 Z" fill="currentColor"/></svg>